Patient4_TMGait_0pt4_01_right_36_EMG.mot
version=1
nRows=39
nColumns=33
inDegrees=no
endheader
time	1LAddLong	2LGlutMax	3LGlutMed	4LIliopsoas	5LSemiMemb	6LBicFemLong	7LRecFem	8LVastMed	9LVastLat	10LGasMed	11LTibAnt	12lTibPost	13LPeroneusLong	14LSol	15LExtDigLong	16LFlexDigLong	17RAddLong	18RGlutMax	19RGlutMed	20RIliopsoas	21RSemiMemb	22RBicFemLong	23RRecFem	24RVastMed	25RVastLat	26RGasMed	27RTibAnt	28RTibPost	29RPeroneusLong	30RSol	31RExtDigLong	32RFlexDigLong
46.91	0.014954	0.08316	-0.007935	-0.010376	0.005646	-0.010986	-0.020599	-0.015411	-0.039978	0.063934	0.007019	0.001678	-0.011292	0.03952	0.092316	-0.019989	-0.015411	-0.12268	-0.28	-0.099792	0.041809	-0.034943	0.029907	-0.076141	-0.00061	0.007629	-0.12756	0.002289	0.019226	-0.072174	-0.00351	0.002136
46.911	0.008545	0.10407	0.012665	0.002747	0.00824	0.00824	-0.080872	-0.014191	-0.046082	0.02594	0.014191	-0.003967	-0.009918	0.037842	0.1239	-0.011597	-0.00946	-0.084534	-0.13245	0.18982	0.040741	-0.032196	0.003052	-0.037079	-0.020905	0.008087	-0.12878	0.001831	-0.087128	-0.057526	-0.002594	0.005646
46.912	0.003815	0.065308	0.034027	-0.002441	0.005188	-0.005798	-0.11169	-0.010071	-0.024414	0.004272	0.028839	-0.001221	-0.063934	0.1828	-0.0177	-0.005951	0.000153	-0.069885	0.031891	0.41046	0.052948	-0.047455	0.041809	-0.072937	-0.019226	0.006561	-0.039978	0.002747	-0.11581	-0.08606	-0.007019	0.000153
46.913	0.006104	0.097504	0.069275	0.005951	0.009918	0.004425	-0.062103	-0.013733	-0.017395	-0.000458	-0.014038	-0.006866	-0.042877	-0.05722	-0.062561	-0.007782	0.009766	-0.06485	0.20096	0.26642	0.06424	-0.050354	-0.005493	-0.088806	-0.023499	-0.002289	0.25162	0.00351	-0.12756	-0.10223	-0.002899	0.007324
46.914	-0.000916	0.12772	-0.056	0.002136	0.00412	0.002747	-0.012054	-0.003052	0.014496	-0.013123	-0.011444	-0.002899	-0.043945	-0.30472	-0.033264	-0.005798	0.006104	-0.050812	0.19028	0.10071	0.04837	-0.040894	0.00473	-0.1152	-0.027771	0.011749	0.38345	-0.00061	-0.10727	-0.11505	-0.00412	0.009155
46.915	0.007935	0.14114	0.10681	-0.00885	0.017548	-0.014648	0.033112	0.003662	0.054474	-0.012665	-0.010681	0.009308	-0.00473	-0.21576	-0.020752	-0.017395	-0.002747	-0.066376	0.17914	0.018463	0.056305	-0.051422	0.012665	-0.061493	-0.032196	0.015411	0.59708	0.004883	-0.014954	-0.15259	-0.002289	0.006409
46.916	0.005188	0.081024	0.063171	-0.034485	0.00946	-0.009308	0.10346	0.006866	0.09613	-0.012817	-0.023956	-0.002136	0.045929	-0.14374	-0.020294	-0.010681	-0.004272	-0.09613	0.23254	0.034332	0.023041	-0.009155	-0.029755	-0.10574	-0.008545	0.020142	0.62027	0.001984	0.062714	-0.13428	-0.002747	0.002594
46.917	0.001526	0.054016	0.057526	-0.007019	0.011902	-0.008698	0.15213	0.005188	0.083008	-0.005341	-0.015869	-0.001526	-0.043793	-0.02182	0.005951	0.009766	0.001373	-0.12054	-0.12558	0.024719	0.000916	-0.005341	-0.016937	-0.091858	-0.020294	0.018921	0.075531	0.003967	0.071411	-0.031738	-0.003357	-0.00351
46.918	0.00061	-0.011902	0.056915	0.016022	0.016174	-0.004272	0.089874	0.007019	0.019531	-0.006409	-0.003967	-0.001831	-0.079041	0.022583	0.053253	0.032501	0.003204	-0.11276	-0.37125	0.030212	-0.041504	-0.050354	-0.004578	-0.064087	-0.012054	0.027771	-0.5954	0.001526	0.083923	0.078125	-0.002594	-0.008087
46.919	0.006256	0.03891	0.04715	-0.001984	0.014496	-0.006409	0.027008	-0.002594	-0.018768	-0.018158	0.014801	0.010834	-0.030518	0.056915	0.14297	0.083771	0.005493	-0.079346	-0.2153	0.055695	-0.085449	-0.029755	0.003815	-0.10666	-0.020142	0.014954	-0.65948	0.003967	0.17425	0.11643	-0.000916	-0.008545
46.92	0.006714	0.058289	0.13016	-0.004578	0.014191	-0.021973	-0.016785	0.013885	0.011444	-0.013885	0.040741	-0.001526	-0.037079	0.0383	0.053253	-0.48218	0.010376	-0.075836	-0.15243	0.011597	-0.090942	-0.022278	-0.009308	-0.083771	-0.005951	0.018005	-0.55389	0.005646	0.06485	0.058899	-0.000916	-0.008545
46.921	0.002899	0.001526	0.086212	0.00351	0.014343	-0.004578	-0.028992	0.001221	0.019684	-0.007324	0.018921	0.007935	-0.050354	0.040283	-0.053864	0.10773	0.010986	-0.075684	0.02594	-0.054321	-0.068665	0.017242	-0.028992	-0.092468	-0.010071	0.013885	-0.28503	0.000763	-0.15762	-0.033569	-0.001831	-0.006104
46.922	0.002136	-0.019073	0.095215	0.007629	0.015717	-0.000458	-0.014343	0.013275	0.001984	-0.006256	0.00946	-0.001678	-0.029449	-0.019684	-0.063934	0.1152	0.003662	-0.071564	-0.057678	-0.11871	0.22614	-0.011444	0.013733	-0.056458	-0.004883	0.011292	-0.1236	0.005798	-0.019226	-0.030518	-0.00061	-0.00824
46.923	-0.000763	0.005646	0.030518	0.01297	0.009613	-0.005646	-0.027618	0.009155	0.007629	-0.023193	0.003967	0	-0.051727	-0.033875	-0.074921	0.028534	0.005493	-0.076141	0.30945	-0.26123	0.19028	-0.0354	0.02594	-0.10635	-0.011902	0.014954	-0.13412	0.002136	0.019226	-0.026398	-0.00061	-0.003967
46.924	-0.016174	0.027313	0.010834	0.001068	0.000305	0.004272	0.014038	0.009766	0.047913	-0.018005	0.009308	0.006409	-0.075531	-0.061951	-0.062561	0.036469	0.012665	-0.066986	0.004272	-0.23468	0.08667	-0.032959	-0.002136	-0.093231	0.000153	0.015717	-0.004425	-0.00412	-0.031433	-0.067902	0	-0.00351
46.925	-0.017548	0.00885	0.012054	-0.001831	-0.029755	0.000305	0.058594	0.008698	0.046692	-0.014038	0.051422	0.001373	-0.070496	-0.12329	-0.051727	0.03006	-0.00473	-0.054169	-0.09201	-0.19531	0.021667	0.000305	-0.005798	-0.055542	0.005798	0.011597	0.15595	0.001526	-0.27786	-0.069275	-0.004883	-0.011139
46.926	-0.008392	-0.035858	-0.081177	-0.005493	-0.023804	-0.006866	0.050659	-0.003662	0	-0.045929	0.098877	0.001678	-0.00946	-0.089111	-0.01709	0.009155	-0.004578	-0.10513	-0.08255	0.039978	0.036011	0.036011	0.00885	-0.087585	0.004883	0.006409	0.34225	0.003967	-0.46387	-0.002289	-0.002899	-0.008087
46.927	0.002441	-0.005951	-0.052338	-0.00061	0.025787	-0.00885	0.045776	0.01297	-0.021667	-0.083923	0.089569	0.003204	-0.026245	-0.050964	0.015564	0.014191	0.010071	-0.11353	0.015717	0.26108	0.05127	0.050201	0.051727	-0.060425	0.000305	0.007935	0.25314	-0.001221	0.005341	0.038605	-0.005493	0.001526
46.928	0.016937	0.033112	-0.004425	-0.004578	0.04425	-0.00885	0.002747	0.025024	-0.021057	-0.13092	0.068512	0.000458	-0.069427	0.046082	0.036621	-0.1149	0.026093	-0.098877	0.30365	0.31326	0.070343	0.025482	0.002899	-0.066986	0.016479	0.002747	0.11795	-0.005493	0.43472	0.009155	-0.003052	-0.007172
46.929	0.02594	0.007324	0.022278	-0.007477	-0.01709	-0.025635	-0.018768	0.035706	-0.030365	-0.12329	-0.053253	0.004425	-0.12161	0.16357	0.005798	0.1564	0.03418	-0.11093	0.3566	0.21316	0.071716	0.053253	-0.005341	-0.066681	-0.000458	-0.003052	0.03006	-0.000763	0.78476	-0.014954	-0.002899	-0.005341
46.93	0.023499	-0.002289	-0.093231	-0.011292	0.015259	-0.028992	-0.010834	0.02121	-0.052948	-0.14496	-0.075531	0.003815	-0.17502	0.38834	0.003052	-0.11795	0.007477	-0.1355	-0.076447	0.12528	0.088959	0.078735	-0.017548	-0.038605	0.002441	-0.003052	-0.011902	0.003815	0.66757	-0.073853	-0.003967	0.000305
46.931	0.025482	-0.039825	-0.076141	0.009308	0.036011	-0.032043	-0.071411	0.007172	-0.041809	-0.15656	-0.053864	0.002441	-0.076904	0.20065	-0.010986	0.06012	-0.0177	-0.11978	-0.17105	-0.001526	-0.005188	0.067444	0.004425	0.007477	0.00061	0.013885	0.14526	0.014496	-0.4538	-0.086212	-0.001984	-0.003052
46.932	0.015717	-0.00473	-0.097504	0.023041	0.009003	-0.016174	-0.045166	-0.0177	0.082703	-0.10529	-0.056	0.00473	0.001373	0.016327	-0.003204	-0.21683	-0.018768	-0.10407	0.013733	-0.048065	-0.02655	0.045776	-0.01709	-0.050964	-0.000763	0.005035	0.079498	0.001984	-1.1046	-0.099945	-0.004272	-0.001221
46.933	0.009155	0.033417	-0.034332	-0.000153	0.016937	-0.023956	0.011902	-0.04364	0.15686	-0.083313	-0.032501	0.001373	0.007324	-0.064545	0.002289	0.15137	-0.02594	-0.084839	-0.046234	0.019379	0.012512	0.029602	0.030212	-0.051117	-0.018921	0	-0.2356	-0.00412	-0.60318	-0.029602	0	-0.005341
46.934	0.004425	0.056458	0.11124	0.017853	0.045166	-0.020447	0.063019	-0.032349	0.076752	0.037689	-0.013733	0.039978	-0.015106	-0.15869	0.022583	0.25146	0.001221	-0.090637	-0.038147	0.094757	0.034332	0.034332	0.005798	-0.075226	-0.001831	-0.010071	-0.24704	-0.003357	0.53314	0.06485	0.000305	-0.000305
46.935	0.02243	0.078735	0.18448	0.01709	0.046387	-0.024719	0.040741	-0.02243	0.003052	0.11429	-0.006256	0.00885	0.042267	-0.24231	0.034027	-0.42557	0.001526	-0.072479	0.023651	0.070801	0.036316	0.033569	-0.05127	-0.035248	0.000153	-0.011444	-0.074005	-0.001373	0.33722	0.093231	0.000763	-0.006104
46.936	0.090027	0.036926	0.048218	0.000763	-0.007172	0.003815	0.042572	-0.013428	0.078583	0.10895	-0.016174	-0.001221	0.059814	-0.10101	0.002747	0.032806	-0.01358	-0.08667	0.007629	-0.025635	0.013275	0.010529	-0.018463	-0.041809	-0.012817	-0.001678	0.12222	0.00061	0.29266	0.008087	0.000458	0.001221
46.937	-0.035248	0.039825	-0.013885	-0.023804	-0.034637	-0.028381	0.005646	0.006714	0.12054	0.097198	-0.000305	-0.103	0.095367	0.43518	-0.024109	0.18341	-0.013428	-0.15472	-0.037384	-0.01297	0.014191	0.012817	-0.025787	-0.032501	0.005035	0.001373	-0.000763	0.001526	0.27542	-0.043488	0.003815	-0.01297
46.938	-0.068359	0.033112	-0.05661	-0.018158	0.00351	-0.057373	-0.020447	0.006866	0.11978	0.10803	0.005798	0.27069	0.020752	0.35461	-0.04837	0.30319	-0.003967	-0.13779	-0.028076	-0.029755	0.009155	0.012512	-0.029144	-0.036621	-0.002594	-0.00061	0.046844	0.000305	0.028229	-0.016327	0.001068	-0.006714
46.939	-0.040741	0.045624	-0.080261	0.016785	-0.021057	-0.035706	-0.10529	-0.003967	0.1564	0.044708	0.004272	0.082092	-0.055847	-0.003357	-0.043945	0.026245	-0.008392	-0.13214	-0.072174	-0.026245	0.027008	-0.014038	-0.026703	-0.066681	0.010376	0.003815	0.03418	0.000916	0.17654	-0.047302	-0.001831	-0.005798
46.94	-0.008392	0.070038	-0.016327	0.030212	0.053864	-0.038757	-0.065613	-0.002899	0.19577	0.1329	0.010529	-0.089569	-0.11643	-0.024872	-0.045319	-0.10544	0.001984	-0.11856	-0.086212	-0.056152	0.033722	-0.024414	0.007629	-0.054474	-0.005798	0.004578	-0.00061	-0.003967	0.051422	-0.021515	-0.001068	-0.000305
46.941	0.00061	0.10529	0.13916	0.002289	0.081787	-0.001678	-0.003357	-0.001984	0.055695	0.12863	0.00946	-0.048676	-0.14328	-0.30426	-0.041962	0.057068	-0.002899	-0.10407	-0.001373	-0.032806	0.036621	-0.037689	-0.009918	-0.10452	0.001831	-0.010681	0.044098	0.002747	-0.21866	0.005646	-0.002441	-0.007629
46.942	0.00946	0.075836	0.04425	-0.003204	0.045471	0.024109	0.058746	-0.00412	-0.25467	0.04776	0.01358	-0.032043	-0.013428	-0.21316	-0.023804	0.042114	0.005188	-0.11704	0.060272	-0.016022	0.04837	-0.017548	-0.000458	-0.065155	0	-0.002594	-0.004578	-0.000763	-0.11597	-0.000763	-0.002289	0.003815
46.943	0.006714	0.047302	0.099182	-0.016174	0.043182	-0.000763	0.080109	0.006866	-0.16037	0.009003	-0.003815	-0.11993	0.1593	-0.053864	-0.027466	0.00351	0.008087	-0.11124	0.38315	-0.034637	-0.02655	0.001373	-0.062408	-0.048676	-0.013275	-0.00351	-0.008392	-0.000305	-0.088654	-0.034485	-0.001678	-0.009613
46.944	0.007324	0.048981	0.095825	-0.028229	0.034637	-0.015106	0.083771	0.005341	-0.082703	0.033569	-0.006256	-0.11063	0.18417	0.011292	-0.03006	-0.16693	-0.000305	-0.12299	0.30243	-0.050354	-0.041962	0.027924	-0.087585	-0.070496	-0.015869	0.008087	0.000458	-0.001526	-0.1294	-0.017853	-0.009613	-0.004578
46.945	0.001678	0.078583	0.076294	0.020142	0.028534	-0.020294	0.073395	0.011902	0.018463	0.19928	0.006714	-0.000153	0.086517	-0.14328	-0.028076	-0.121	-0.003357	-0.034485	-0.11032	-0.001678	-0.030823	0.021515	-0.090942	-0.054626	-0.005341	-0.000916	-0.017395	0.001678	-0.050964	0.011139	-0.004883	-0.002899
46.946	0.01358	0.042572	-0.002899	-0.008698	0.011597	-0.017395	0.018616	0.01236	0.065918	0.13138	0.009308	0.12528	0.019836	-0.31372	-0.009003	-0.058136	0.007629	-0.085144	-0.29831	0.059662	-0.03067	-0.012665	-0.051575	-0.071564	-0.009766	0.001221	-0.027924	0.003204	0.055084	-0.003662	-0.001373	-0.004883
46.947	0.012817	0.024414	0.050964	0	0.007019	-0.023346	0.009155	0.02182	0.074921	0.093079	0.014648	0.066833	0.012207	-0.22598	-0.016174	-0.005798	0.004578	-0.089417	-0.020905	0.019836	-0.004578	-0.012817	-0.095978	-0.045929	-0.010376	-0.002441	0.023346	0.001831	0.34973	0.016632	-0.002747	-0.005951
46.948	0.01709	-0.023499	-0.019226	0.007172	0.028381	-0.018463	0.069733	0.008087	-0.13382	0.13641	0.002594	0.033264	-0.01236	0.031128	-0.000305	-0.009918	0.007324	-0.057678	-0.012665	-0.014343	0.092773	-0.045166	-0.071869	-0.057526	0.001373	-0.009155	0.10391	0.000916	0.13763	-0.010376	-0.001373	-0.002594
